{"title":"Real.Steel.2011.BRRIP.720P.H264-ZEKTORM","uid":6953235,"size":3505565489,"categoryP":"video","categoryS":"hd___movies","magnet":"?xt=urn:btih:a989fd1578cf4e477619a43ee10b460fcc4ec486&amp;dn=Real.Steel.2011.BRRIP.720P.H264-ZEKTORM&amp;tr=udp%3A%2F%2Ftracker.openbittorrent.com%3A80&amp;tr=udp%3A%2F%2Fopen.demonii.com%3A1337&amp;tr=udp%3A%2F%2Ftracker.coppersurfer.tk%3A6969&amp;tr=udp%3A%2F%2Fexodus.desync.com%3A6969","seeders":0,"leechers":1,"uploader":"blowley","files":4,"time":1326479111,"description":"Title                            : Real Steel\nYear                             : 2011\nGenre                            : Action | Drama | Sci-Fi\niMDB URL                         : http://www.imdb.com/title/tt0433035/\n\nComplete name                    : Real.Steel.2011.BRRIP.720P.H264-ZEKTORM.mp4\nFormat                           : MPEG-4\nFormat profile                   : Base Media\nCodec ID                         : isom\nFile size                        : 3.26 GiB\nDuration                         : 2h 6mn\nOverall bit rate                 : 3687 Kbps\nSubtitles                        : English (Format: srt)\n\nVideo\nID                               : 1\nFormat                           : AVC\nFormat/Info                      : Advanced Video Codec\nFormat profile                   : &lt;a class=&quot;__cf_email__&quot; href=&quot;/cdn-cgi/l/email-protection&quot; data-cfemail=&quot;0a42636d624a463e243a&quot;&gt;[email&amp;#160;protected]&lt;/a&gt;&lt;script cf-hash='f9e31' type=&quot;text/javascript&quot;&gt;\n/* &lt;![CDATA[ */!function(){try{var t=&quot;currentScript&quot;in document?document.currentScript:function(){for(var t=document.getElementsByTagName(&quot;script&quot;),e=t.length;e--;)if(t[e].getAttribute(&quot;cf-hash&quot;))return t[e]}();if(t&amp;&amp;t.previousSibling){var e,r,n,i,c=t.previousSibling,a=c.getAttribute(&quot;data-cfemail&quot;);if(a){for(e=&quot;&quot;,r=parseInt(a.substr(0,2),16),n=2;a.length-n;n+=2)i=parseInt(a.substr(n,2),16)^r,e+=String.fromCharCode(i);e=document.createTextNode(e),c.parentNode.replaceChild(e,c)}}}catch(u){}}();/* ]]&gt; */&lt;/script&gt;\nFormat settings, CABAC           : Yes\nFormat settings, ReFrames        : 5 frames\nCodec ID                         : avc1\nCodec ID/Info                    : Advanced Video Coding\nDuration                         : 2h 6mn\nBit rate mode                    : Variable\nBit rate                         : 3239 Kbps\nWidth                            : 1280 pixels\nHeight                           : 544 pixels\nDisplay aspect ratio             : 2.35\nFrame rate mode                  : Constant\nFrame rate                       : 23.976 fps\nResolution                       : 24 bits\nColorimetry                      : 4:2:0\nScan type                        : Progressive\nBits/(Pixel*Frame)               : 0.194\nStream size                      : 2.87 GiB (88%)\nTitle                            : Video\nWriting library                  : x264\n\nAudio\nID                               : 2\nFormat                           : AAC\nFormat/Info                      : Advanced Audio Codec\nFormat version                   : Version 4\nFormat profile                   : LC\nFormat settings, SBR             : No\nCodec ID                         : 40\nDuration                         : 2h 6mn\nBit rate mode                    : Variable\nBit rate                         : 444 Kbps\nMaximum bit rate                 : 575 Kbps\nChannel(s)                       : 6 channels\nChannel positions                : Front: L C R, Rear: L R, LFE\nSampling rate                    : 48.0 KHz\nResolution                       : 16 bits\nStream size                      : 403 MiB (12%)\nLanguage                         : English\n\n\nScreenshots:\n\n[img]http://img580.imageshack.us/img580/6893/snaprs1.png[/img]\n\n[img]http://img862.imageshack.us/img862/2249/snaprs2.png[/img]\n\n[img]http://img696.imageshack.us/img696/1531/snapke3.png[/img]\n","torrent":{"xt":"urn:btih:a989fd1578cf4e477619a43ee10b460fcc4ec486","amp;dn":"Real.Steel.2011.BRRIP.720P.H264-ZEKTORM","amp;tr":["udp%3A%2F%2Ftracker.openbittorrent.com%3A80","udp%3A%2F%2Fopen.demonii.com%3A1337","udp%3A%2F%2Ftracker.coppersurfer.tk%3A6969","udp%3A%2F%2Fexodus.desync.com%3A6969"],"infoHash":"a989fd1578cf4e477619a43ee10b460fcc4ec486","infoHashBuffer":{"type":"Buffer","data":[169,137,253,21,120,207,78,71,118,25,164,62,225,11,70,15,204,78,196,134]},"announce":[],"urlList":[]}}